HIERARCHY
ROOT Hips
{
    OFFSET 0.000000 0.000000 0.000000
    CHANNELS 6 Xposition Yposition Zposition Zrotation Xrotation Yrotation
    JOINT Spine
    {
        OFFSET -0.000000 8.834163 0.000000
        CHANNELS 3 Zrotation Xrotation Yrotation
        JOINT Spine1
        {
            OFFSET -0.000000 17.855492 0.000000
            CHANNELS 3 Zrotation Xrotation Yrotation
            JOINT Neck
            {
                OFFSET -0.000000 17.782162 1.616560
                CHANNELS 3 Zrotation Xrotation Yrotation
                JOINT Head
                {
                    OFFSET -0.000000 15.082717 -2.154674
                    CHANNELS 3 Zrotation Xrotation Yrotation
                    End Site
                    {
                        OFFSET -0.000000 26.933422 0.000000
                    }
                }
            }
            JOINT LeftShoulder
            {
                OFFSET 4.280775 15.989452 -0.632416
                CHANNELS 3 Zrotation Xrotation Yrotation
                JOINT LeftArm
                {
                    OFFSET 11.735877 0.000000 0.000000
                    CHANNELS 3 Zrotation Xrotation Yrotation
                    JOINT LeftForeArm
                    {
                        OFFSET 33.149986 0.000000 0.000000
                        CHANNELS 3 Zrotation Xrotation Yrotation
                        JOINT LeftHand
                        {
                            OFFSET 28.572401 0.000000 0.000000
                            CHANNELS 3 Zrotation Xrotation Yrotation
                            End Site
                            {
                                OFFSET 16.160055 0.000000 0.000000
                            }
                        }
                    }
                }
            }
            JOINT RightShoulder
            {
                OFFSET -4.290631 15.989452 -0.632416
                CHANNELS 3 Zrotation Xrotation Yrotation
                JOINT RightArm
                {
                    OFFSET -11.735877 0.000000 0.000000
                    CHANNELS 3 Zrotation Xrotation Yrotation
                    JOINT RightForeArm
                    {
                        OFFSET -33.149986 0.000000 0.000000
                        CHANNELS 3 Zrotation Xrotation Yrotation
                        JOINT RightHand
                        {
                            OFFSET -28.572401 0.000000 0.000000
                            CHANNELS 3 Zrotation Xrotation Yrotation
                            End Site
                            {
                                OFFSET -16.160055 0.000000 0.000000
                            }
                        }
                    }
                }
            }
        }
    }
    JOINT LeftUpLeg
    {
        OFFSET 10.773369 0.000000 0.000000
        CHANNELS 3 Zrotation Xrotation Yrotation
        JOINT LeftLeg
        {
            OFFSET -0.000000 -54.062664 0.000000
            CHANNELS 3 Zrotation Xrotation Yrotation
            JOINT LeftFoot
            {
                OFFSET -0.000000 -48.941059 0.000000
                CHANNELS 3 Zrotation Xrotation Yrotation
                JOINT LeftToeBase
                {
                    OFFSET -0.000000 -7.002690 16.160055
                    CHANNELS 3 Zrotation Xrotation Yrotation
                    End Site
                    {
                        OFFSET -0.000000 0.000000 4.309348
                    }
                }
            }
        }
    }
    JOINT RightUpLeg
    {
        OFFSET -10.773369 0.000000 0.000000
        CHANNELS 3 Zrotation Xrotation Yrotation
        JOINT RightLeg
        {
            OFFSET -0.000000 -54.062664 0.000000
            CHANNELS 3 Zrotation Xrotation Yrotation
            JOINT RightFoot
            {
                OFFSET -0.000000 -48.941059 0.000000
                CHANNELS 3 Zrotation Xrotation Yrotation
                JOINT RightToeBase
                {
                    OFFSET -0.000000 -7.002690 16.160055
                    CHANNELS 3 Zrotation Xrotation Yrotation
                    End Site
                    {
                        OFFSET -0.000000 0.000000 4.309348
                    }
                }
            }
        }
    }
}
MOTION
Frames:    12
Frame Time:    0.008333
-72.749130    97.643143    15.344972    159.175247    0.671169    -85.206108    -4.126149    -38.350830    -2.757045    -1.065122    23.495123    -1.100631    8.119467    70.622650    -4.982212    -177.301315    -57.908180    -175.682892    7.209722    -14.584225    -7.882806    3.767121    -27.135538    -52.390553    19.871353    -27.702391    -23.130781    43.735222    -25.247551    -3.404263    2.559686    -7.425047    27.993587    -17.468706    -27.388994    49.794144    -11.667682    -12.751694    1.527485    -68.528099    -16.991144    6.658643    10.045029    48.703106    0.900569    5.787372    26.661057    -2.593604    -17.285923    27.224733    18.057838    0.000000    0.000000    0.000000    -6.101276    35.936577    20.152960    2.717832    19.941904    -18.441320    18.581457    37.618149    -27.379459    0.000000    0.000000    0.000000    
-73.040054    97.534576    15.593356    159.003632    0.361692    -84.792877    -4.074379    -38.197533    -2.769845    -1.109506    23.290653    -1.130466    8.633499    70.866913    -5.143269    -176.807617    -57.843136    -174.710403    7.500785    -14.754416    -7.712115    4.062109    -27.417004    -53.081234    18.977211    -28.152948    -21.637300    41.998886    -25.710300    -2.399337    2.639591    -7.207749    28.167465    -17.372978    -27.392771    49.848732    -11.379780    -12.413612    1.587959    -68.716545    -16.924229    7.040627    10.130024    48.645771    0.591830    5.853638    26.565128    -2.616520    -17.097824    27.485817    18.134483    0.000000    0.000000    0.000000    -6.236808    36.307220    20.017811    2.795696    20.037560    -18.778416    18.581457    37.618149    -27.379459    0.000000    0.000000    0.000000    
-73.337639    97.400543    15.883778    158.819580    -0.006848    -84.382965    -4.303061    -38.273689    -2.844009    -0.839317    23.477612    -1.176358    10.057158    70.754982    -5.760471    -175.763275    -57.873062    -172.816879    7.974590    -14.995569    -8.064920    4.269841    -27.724905    -53.221405    18.061226    -28.580372    -20.225958    40.555786    -26.277390    -1.770695    2.571742    -7.116947    28.218554    -17.161207    -27.445269    49.940617    -11.185870    -12.098183    1.600307    -68.788956    -16.880869    7.431835    10.046122    48.637119    0.601006    6.121596    26.339891    -2.728584    -17.224857    27.616459    18.331354    0.000000    0.000000    0.000000    -6.434460    36.704384    20.016304    2.866636    20.102018    -19.212688    18.581457    37.618149    -27.379459    0.000000    0.000000    0.000000    
-73.632050    97.257904    16.188730    158.624496    -0.417833    -84.051674    -4.321650    -38.236328    -2.910035    -0.787944    23.507666    -1.247968    9.643725    70.805237    -5.370503    -175.717896    -57.917561    -172.611115    8.245570    -15.481981    -8.082726    4.908234    -27.287384    -53.314987    17.354010    -29.044720    -18.815481    39.606449    -26.956896    -1.480898    2.449265    -6.942072    28.434401    -16.966801    -27.549175    50.013844    -10.845335    -11.739872    1.725258    -69.067352    -16.791737    7.797840    9.937320    48.655453    0.240763    6.039100    26.176472    -2.431266    -17.148834    27.785263    18.444937    0.000000    0.000000    0.000000    -6.724559    37.115200    20.105186    2.932236    20.168278    -19.169363    18.581457    37.618149    -27.379459    0.000000    0.000000    0.000000    
-73.957504    97.103188    16.517279    158.451126    -0.824892    -83.806793    -4.623657    -38.314434    -3.037891    -0.257286    23.757923    -1.377309    10.057477    70.308464    -5.443146    -175.141678    -57.979847    -171.612579    8.633029    -15.358967    -8.089330    5.083485    -27.664520    -53.660400    16.635115    -28.776936    -17.512501    40.447075    -26.622288    -0.399198    2.327392    -6.981263    28.513746    -16.797899    -27.435488    50.213470    -10.646961    -11.378029    1.824911    -69.260857    -16.716290    8.196497    9.771830    48.690269    -0.369826    5.699667    26.001507    -1.757810    -17.154680    27.901873    18.688053    0.000000    0.000000    0.000000    -7.103168    37.450680    20.457903    3.055270    20.227371    -19.416534    18.581457    37.618149    -27.379459    0.000000    0.000000    0.000000    
-74.304070    96.936378    16.869265    158.291733    -1.281977    -83.599014    -4.585892    -38.309593    -3.033430    -0.243559    23.840998    -1.388886    10.380308    70.350647    -5.376682    -174.807144    -57.864975    -170.797363    8.953341    -15.506760    -8.042629    5.590596    -27.487913    -54.057262    15.309481    -28.642004    -16.809624    45.465454    -25.604603    2.714229    2.264488    -6.778866    28.727427    -16.851461    -27.290916    50.124901    -10.541595    -11.164195    2.032987    -69.477135    -16.656538    8.411386    9.154362    48.658146    0.590780    6.337925    25.756247    -2.191823    -17.042301    28.168795    18.634085    0.000000    0.000000    0.000000    -7.583759    37.765915    20.864931    3.197804    20.256136    -19.752115    18.581457    37.618149    -27.379459    0.000000    0.000000    0.000000    
-74.687752    96.757904    17.247919    158.207779    -1.799161    -83.502159    -4.654635    -38.396263    -3.045509    -0.087747    23.995264    -1.405844    11.380231    70.358353    -5.637474    -174.047516    -57.684509    -169.217361    9.211926    -15.796482    -8.192834    6.195368    -27.014198    -54.138813    14.264764    -28.236917    -16.253164    50.649071    -23.814741    6.069041    2.180951    -6.635189    28.933182    -17.023401    -26.969051    49.971409    -10.504547    -11.058082    2.382493    -69.738022    -16.595692    8.479145    8.693880    48.647896    -0.213303    5.776739    25.610214    -1.432220    -17.069942    28.274075    19.030022    0.000000    0.000000    0.000000    -8.228006    37.972622    21.424408    3.323484    20.293060    -20.007423    18.581457    37.618149    -27.379459    0.000000    0.000000    0.000000    
-75.075737    96.572227    17.609680    158.090057    -2.213284    -83.469032    -4.554093    -38.484180    -2.988576    -0.009627    24.225014    -1.396628    11.758616    70.454933    -5.612504    -173.807465    -57.473656    -168.525177    9.474989    -15.849177    -8.038269    6.090501    -26.956032    -54.939388    13.416438    -27.970692    -15.762617    55.581608    -21.855698    9.235725    2.030519    -6.439170    29.159330    -16.823015    -27.057070    49.993813    -10.483402    -10.847491    2.569293    -69.890068    -16.662888    8.882858    7.893174    48.604912    0.843119    6.364569    25.385983    -1.916560    -16.915716    28.581039    19.014275    0.000000    0.000000    0.000000    -8.803333    38.161285    21.890902    3.395307    20.326141    -20.077816    18.581457    37.618149    -27.379459    0.000000    0.000000    0.000000    
-75.501976    96.383804    17.985752    158.092499    -2.744533    -83.428345    -4.690592    -38.592915    -3.020499    0.150184    24.328768    -1.410268    12.200813    70.574829    -5.606981    -173.499344    -57.268600    -167.697861    9.547648    -16.246767    -8.232677    6.182718    -26.255331    -55.320164    12.016511    -29.269197    -16.009508    63.181915    -21.210443    11.690040    1.992606    -6.304087    29.264626    -16.474760    -27.133575    50.298462    -10.277835    -10.373728    2.708960    -70.216385    -16.557169    9.364276    7.318454    48.456917    0.213669    5.808035    25.320364    -1.132465    -16.853395    28.677048    19.284061    0.000000    0.000000    0.000000    -9.519562    38.226971    22.458027    3.506434    20.343233    -20.399048    18.581457    37.618149    -27.379459    0.000000    0.000000    0.000000    
-75.921562    96.187798    18.353733    158.066498    -3.217412    -83.455017    -4.552677    -38.696037    -2.928548    0.028541    24.450575    -1.335945    12.049562    70.743011    -5.332483    -173.660950    -57.087605    -167.704971    9.790948    -16.190405    -8.313719    5.741412    -26.240011    -55.863052    11.703547    -28.335352    -14.508733    67.157875    -20.018379    11.442383    2.022075    -6.139837    29.509916    -16.652466    -26.777683    50.100452    -10.289368    -10.318048    3.014168    -70.513893    -16.561747    9.437869    6.400939    48.275112    1.382890    6.339919    25.165649    -1.511542    -16.555880    29.061207    18.997887    0.000000    0.000000    0.000000    -10.228417    38.306942    22.955912    3.551311    20.326372    -20.460701    18.581457    37.618149    -27.379459    0.000000    0.000000    0.000000    
-76.373314    95.996208    18.716988    158.120270    -3.703283    -83.427437    -4.667882    -38.778355    -2.968737    0.178858    24.449770    -1.364404    12.455323    71.108635    -5.463270    -173.455994    -56.798988    -167.134262    9.735928    -15.957636    -8.071493    4.024622    -26.559139    -57.266331    12.288555    -26.120495    -12.171722    69.651978    -19.353069    8.640532    1.935910    -5.909779    29.666142    -16.768793    -26.505136    50.002190    -10.229786    -10.225334    3.299534    -70.896217    -16.554728    9.525810    5.862595    48.074863    0.858544    5.814609    25.096674    -0.942177    -16.768852    29.057690    19.362276    0.000000    0.000000    0.000000    -10.857596    38.314770    23.100195    3.430728    20.335476    -20.282675    18.581457    37.618149    -27.379459    0.000000    0.000000    0.000000    
-76.827583    95.796623    19.060244    158.142761    -4.160404    -83.418510    -4.435732    -39.044857    -2.859340    -0.149704    24.637283    -1.253776    12.971887    71.623032    -5.681772    -173.333160    -56.536888    -166.673019    9.707562    -15.567913    -7.726145    1.612846    -26.940882    -58.547436    12.405868    -26.097885    -12.117228    71.111061    -20.664660    6.426092    1.952105    -5.564551    30.060276    -16.885632    -26.338743    49.646465    -10.178007    -10.104543    3.637508    -71.235939    -16.543560    9.659516    5.116350    47.857037    1.578450    6.058014    24.953156    -1.250157    -16.651524    29.332129    19.300989    0.000000    0.000000    0.000000    -11.449504    38.330402    23.312189    3.300394    20.342733    -20.236778    18.581457    37.618149    -27.379459    0.000000    0.000000    0.000000    
